HIERARCHY
ROOT Hips
{
	OFFSET 0.00000 0.00000 0.00000
	CHANNELS 6 Xposition Yposition Zposition Zrotation Yrotation Xrotation 
	JOINT LHipJoint
	{
		OFFSET 0 0 0
		CHANNELS 3 Zrotation Yrotation Xrotation
		JOINT LeftUpLeg
		{
			OFFSET 1.34019 -1.87553 0.90315
			CHANNELS 3 Zrotation Yrotation Xrotation
			JOINT LeftLeg
			{
				OFFSET 2.55316 -7.01474 0.00000
				CHANNELS 3 Zrotation Yrotation Xrotation
				JOINT LeftFoot
				{
					OFFSET 2.64657 -7.27139 0.00000
					CHANNELS 3 Zrotation Yrotation Xrotation
					JOINT LeftToeBase
					{
						OFFSET 0.24207 -0.66507 2.14489
						CHANNELS 3 Zrotation Yrotation Xrotation
						End Site
						{
							OFFSET 0.00000 -0.00000 1.12451
						}
					}
				}
			}
		}
	}
	JOINT RHipJoint
	{
		OFFSET 0 0 0
		CHANNELS 3 Zrotation Yrotation Xrotation
		JOINT RightUpLeg
		{
			OFFSET -1.28320 -1.87553 0.90315
			CHANNELS 3 Zrotation Yrotation Xrotation
			JOINT RightLeg
			{
				OFFSET -2.60484 -7.15674 0.00000
				CHANNELS 3 Zrotation Yrotation Xrotation
				JOINT RightFoot
				{
					OFFSET -2.60296 -7.15159 0.00000
					CHANNELS 3 Zrotation Yrotation Xrotation
					JOINT RightToeBase
					{
						OFFSET -0.31082 -0.85398 2.28998
						CHANNELS 3 Zrotation Yrotation Xrotation
						End Site
						{
							OFFSET -0.00000 -0.00000 1.21611
						}
					}
				}
			}
		}
	}
	JOINT LowerBack
	{
		OFFSET 0 0 0
		CHANNELS 3 Zrotation Yrotation Xrotation
		JOINT Spine
		{
			OFFSET -0.00160 2.05581 -0.15156
			CHANNELS 3 Zrotation Yrotation Xrotation
			JOINT Spine1
			{
				OFFSET 0.04594 2.06326 -0.01617
				CHANNELS 3 Zrotation Yrotation Xrotation
				JOINT Neck
				{
					OFFSET 0 0 0
					CHANNELS 3 Zrotation Yrotation Xrotation
					JOINT Neck1
					{
						OFFSET 0.03753 1.73883 0.26751
						CHANNELS 3 Zrotation Yrotation Xrotation
						JOINT Head
						{
							OFFSET -0.09795 1.76129 -0.31794
							CHANNELS 3 Zrotation Yrotation Xrotation
							End Site
							{
								OFFSET -0.03611 1.79987 -0.13846
							}
						}
					}
				}
				JOINT LeftShoulder
				{
					OFFSET 0 0 0
					CHANNELS 3 Zrotation Yrotation Xrotation
					JOINT LeftArm
					{
						OFFSET 3.30667 1.29205 -0.22445
						CHANNELS 3 Zrotation Yrotation Xrotation
						JOINT LeftForeArm
						{
							OFFSET 4.92785 -0.00000 -0.00000
							CHANNELS 3 Zrotation Yrotation Xrotation
							JOINT LeftHand
							{
								OFFSET 3.44052 -0.00000 0.00000
								CHANNELS 3 Zrotation Yrotation Xrotation
								JOINT LeftFingerBase
								{
									OFFSET 0 0 0
									CHANNELS 3 Zrotation Yrotation Xrotation
									JOINT LeftHandIndex1
									{
										OFFSET 0.65433 -0.00000 0.00000
										CHANNELS 3 Zrotation Yrotation Xrotation
										End Site
										{
											OFFSET 0.52753 -0.00000 0.00000
										}
									}
								}
								JOINT LThumb
								{
									OFFSET 0 0 0
									CHANNELS 3 Zrotation Yrotation Xrotation
									End Site
									{
										OFFSET 0.53559 -0.00000 0.53559
									}
								}
							}
						}
					}
				}
				JOINT RightShoulder
				{
					OFFSET 0 0 0
					CHANNELS 3 Zrotation Yrotation Xrotation
					JOINT RightArm
					{
						OFFSET -3.20032 1.49783 -0.27688
						CHANNELS 3 Zrotation Yrotation Xrotation
						JOINT RightForeArm
						{
							OFFSET -5.09181 -0.00000 -0.00000
							CHANNELS 3 Zrotation Yrotation Xrotation
							JOINT RightHand
							{
								OFFSET -3.49865 -0.00000 -0.00000
								CHANNELS 3 Zrotation Yrotation Xrotation
								JOINT RightFingerBase
								{
									OFFSET 0 0 0
									CHANNELS 3 Zrotation Yrotation Xrotation
									JOINT RightHandIndex1
									{
										OFFSET -0.66641 -0.00000 0.00000
										CHANNELS 3 Zrotation Yrotation Xrotation
										End Site
										{
											OFFSET -0.53728 -0.00000 0.00000
										}
									}
								}
								JOINT RThumb
								{
									OFFSET 0 0 0
									CHANNELS 3 Zrotation Yrotation Xrotation
									End Site
									{
										OFFSET -0.54548 -0.00000 0.54548
									}
								}
							}
						}
					}
				}
			}
		}
	}
}
MOTION
Frames: 12
Frame Time: .0083333
-0.5872 17.8753 -29.8451 0 0 0 0 0 0 -21 0 0 0 0 0 0 0 0 0 0 0 0 0 0 21 0 0 0 0 0 0 0 0 0 0 0 0 0 0 0 0 0 0 0 0 0 0 -16 0 0 21 0 0 11 0 0 0 -8 0 0 0 0 0 0 0 0 0 0 0 0 0 0 0 0 0 0 0 0 8 0 0 0 0 0 0 0 0 0 0 0 0 0 0 0 0 0
-0.5872 17.8753 -29.8451 -1.0438 2.2033 2.4247 0.0000 0.0000 0.0000 -16.1414 -4.5864 -7.7599 2.1203 9.1122 26.1469 -0.0244 12.3269 -17.2114 0.1888 -2.7986 -7.7184 0.0000 0.0000 0.0000 20.4038 0.6487 -10.3512 -2.8044 -10.3715 30.1884 -0.1007 -15.4249 -22.8881 -0.0063 0.5119 -1.4066 -0.3137 0.6748 4.3019 1.6321 0.9629 -2.7903 1.7836 0.5215 -5.3387 7.1932 0.3499 -14.8993 -7.3334 0.3862 20.5207 -3.6709 -0.0421 8.8931 -0.0000 -0.0000 0.0000 -83.7650 7.7987 29.5855 16.2682 -25.8830 -3.7623 -0.0000 0.0000 -10.0441 13.0243 0.8627 0.1996 -7.1250 0.0000 -0.0000 -10.7256 30.7622 3.7897 -0.0000 -0.0000 0.0000 87.1082 -10.8835 11.0098 -13.9921 22.7234 -2.8251 0.0000 -0.0000 -4.1794 -15.8241 -3.6642 1.0377 7.1250 -0.0000 -0.0000 8.8262 -33.6899 2.4729
-0.5824 17.8747 -29.8328 -1.0342 2.1940 2.4440 0.0000 0.0000 0.0000 -16.1803 -4.5870 -7.7160 2.1171 9.1058 26.1269 -0.0257 12.3630 -17.2462 0.1906 -2.8116 -7.7545 0.0000 0.0000 0.0000 20.3717 0.6381 -10.3363 -2.8063 -10.3748 30.1991 -0.1049 -15.4068 -22.9040 -0.0066 0.5257 -1.4446 -0.2946 0.7048 4.2199 1.5923 1.0023 -2.8212 1.7286 0.5396 -5.3244 7.1699 0.3128 -14.8136 -7.2690 0.3337 20.5820 -3.6514 -0.0600 8.8939 -0.0000 0.0000 0.0000 -83.7975 7.8887 29.7833 16.2433 -25.8495 -3.7514 -0.0000 0.0000 -10.0433 13.0137 0.7238 0.1673 -7.1250 0.0000 -0.0000 -10.7179 30.6219 3.8236 -0.0000 0.0000 0.0000 87.1037 -10.9359 11.2072 -14.1000 22.8775 -2.8669 0.0000 -0.0000 -4.3335 -15.8435 -3.6596 1.0378 7.1250 -0.0000 -0.0000 8.8100 -33.6858 2.4691
-0.5761 17.8737 -29.8176 -0.9992 2.1285 2.4473 0.0000 0.0000 0.0000 -16.2591 -4.5453 -7.6323 2.1104 9.0924 26.0847 -0.0288 12.4258 -17.2957 0.1914 -2.8178 -7.7719 0.0000 0.0000 0.0000 20.2984 0.6209 -10.3055 -2.8109 -10.3824 30.2242 -0.1137 -15.3415 -22.9017 -0.0073 0.5505 -1.5127 -0.2913 0.7473 4.1144 1.5505 1.0566 -2.8162 1.6797 0.5653 -5.2598 7.1090 0.2805 -14.7931 -7.1820 0.2878 20.6481 -3.6176 -0.0763 8.9091 -0.0000 -0.0000 0.0000 -83.8519 7.9345 29.9447 16.2165 -25.8134 -3.7398 -0.0000 0.0000 -10.0334 12.9943 0.6707 0.1548 -7.1250 0.0000 -0.0000 -10.7269 30.5680 3.8409 -0.0000 -0.0000 0.0000 87.0792 -10.9271 11.4036 -14.2020 23.0228 -2.9067 0.0000 -0.0000 -4.4888 -15.8782 -3.6936 1.0498 7.1250 -0.0000 -0.0000 8.7860 -33.7220 2.4545
-0.5701 17.8728 -29.8033 -0.9381 2.0902 2.4542 0.0000 0.0000 0.0000 -16.3639 -4.5148 -7.5573 2.1039 9.0792 26.0433 -0.0311 12.4733 -17.3342 0.1932 -2.8304 -7.8070 0.0000 0.0000 0.0000 20.1969 0.5857 -10.2865 -2.8157 -10.3906 30.2512 -0.1207 -15.2835 -22.8923 -0.0080 0.5788 -1.5905 -0.3204 0.7726 4.0162 1.5138 1.0858 -2.7798 1.6566 0.5796 -5.1664 7.0232 0.2589 -14.8748 -7.0937 0.2561 20.7174 -3.5789 -0.0893 8.9456 -0.0000 -0.0000 0.0000 -83.9336 7.9160 30.0602 16.1848 -25.7705 -3.7259 -0.0000 0.0000 -9.9844 12.9874 0.6332 0.1460 -7.1250 0.0000 -0.0000 -10.7280 30.5301 3.8513 -0.0000 -0.0000 0.0000 87.0263 -10.8351 11.6262 -14.3029 23.1661 -2.9462 0.0000 -0.0000 -4.6619 -15.9390 -3.7735 1.0768 7.1250 -0.0000 -0.0000 8.7463 -33.8063 2.4251
-0.5644 17.8719 -29.7892 -0.8652 2.0536 2.4580 0.0000 0.0000 0.0000 -16.4817 -4.4836 -7.4780 2.0968 9.0649 25.9985 -0.0331 12.5187 -17.3728 0.1952 -2.8451 -7.8477 0.0000 0.0000 0.0000 20.0814 0.5437 -10.2680 -2.8214 -10.4002 30.2827 -0.1280 -15.2202 -22.8783 -0.0088 0.6071 -1.6683 -0.3673 0.7886 3.9227 1.4840 1.1015 -2.7151 1.6520 0.5876 -5.0461 6.9553 0.2582 -15.0414 -7.0378 0.2506 20.7750 -3.5520 -0.0934 8.9960 -0.0000 -0.0000 0.0000 -84.0384 7.8481 30.1269 16.1615 -25.7391 -3.7158 -0.0000 0.0000 -9.9556 12.9645 0.6622 0.1525 -7.1250 0.0000 -0.0000 -10.7493 30.5590 3.8516 -0.0000 -0.0000 0.0000 86.9489 -10.6698 11.8549 -14.3916 23.2918 -2.9812 0.0000 -0.0000 -4.8069 -15.9822 -3.8032 1.0883 7.1250 -0.0000 -0.0000 8.7148 -33.8384 2.4093
-0.5595 17.8711 -29.7762 -0.8028 2.0368 2.4621 0.0000 0.0000 0.0000 -16.5819 -4.4667 -7.4079 2.0909 9.0530 25.9611 -0.0343 12.5532 -17.4077 0.1973 -2.8607 -7.8912 0.0000 0.0000 0.0000 19.9834 0.5039 -10.2519 -2.8271 -10.4097 30.3140 -0.1330 -15.1768 -22.8696 -0.0096 0.6328 -1.7388 -0.4063 0.8107 3.8453 1.4484 1.1257 -2.6361 1.6362 0.5994 -4.9202 6.9132 0.2475 -15.2781 -6.9954 0.2238 20.8438 -3.5378 -0.1077 9.0615 0.0000 -0.0000 0.0000 -84.1199 7.7420 30.2273 16.1422 -25.7131 -3.7074 -0.0000 0.0000 -9.9171 12.9319 0.6749 0.1550 -7.1250 0.0000 -0.0000 -10.7763 30.5712 3.8584 0.0000 -0.0000 0.0000 86.8994 -10.4601 12.0276 -14.4790 23.4153 -3.0158 0.0000 -0.0000 -4.9526 -16.0333 -3.8171 1.0960 7.1250 -0.0000 -0.0000 8.6750 -33.8547 2.3947
-0.5557 17.8703 -29.7647 -0.7566 2.0563 2.4694 0.0000 0.0000 0.0000 -16.6568 -4.4740 -7.3535 2.0871 9.0453 25.9370 -0.0338 12.5700 -17.4376 0.1995 -2.8759 -7.9334 0.0000 0.0000 0.0000 19.9126 0.4647 -10.2394 -2.8316 -10.4173 30.3389 -0.1339 -15.1683 -22.8669 -0.0104 0.6586 -1.8098 -0.4455 0.8157 3.7835 1.4296 1.1279 -2.5514 1.6397 0.6005 -4.7970 6.8546 0.2407 -15.5508 -6.9568 0.2054 20.9102 -3.5216 -0.1204 9.1337 0.0000 0.0000 0.0000 -84.2186 7.6191 30.3034 16.1295 -25.6959 -3.7019 -0.0000 0.0000 -9.8767 12.8909 0.6970 0.1595 -7.1250 0.0000 -0.0000 -10.8109 30.5927 3.8655 0.0000 0.0000 0.0000 86.8290 -10.2183 12.2091 -14.5590 23.5282 -3.0477 0.0000 -0.0000 -5.0944 -16.0782 -3.7854 1.0901 7.1250 -0.0000 -0.0000 8.6347 -33.8237 2.3899
-0.5528 17.8697 -29.7545 -0.7458 2.0950 2.4866 0.0000 0.0000 0.0000 -16.6855 -4.5017 -7.3259 2.0864 9.0437 25.9321 -0.0322 12.5757 -17.4671 0.2012 -2.8882 -7.9678 0.0000 0.0000 0.0000 19.8892 0.4384 -10.2348 -2.8343 -10.4218 30.3538 -0.1308 -15.1904 -22.8657 -0.0112 0.6841 -1.8800 -0.4567 0.8255 3.7347 1.4137 1.1394 -2.5305 1.6292 0.6059 -4.7478 6.9155 0.2471 -15.6605 -7.0020 0.2037 20.9507 -3.5503 -0.1226 9.1679 0.0000 0.0000 0.0000 -84.2892 7.6185 30.4355 16.1241 -25.6886 -3.6996 -0.0000 0.0000 -9.8590 12.8245 0.6711 0.1528 -7.1250 0.0000 -0.0000 -10.8598 30.5653 3.8908 0.0000 0.0000 0.0000 86.7841 -10.1063 12.3557 -14.6498 23.6560 -3.0841 0.0000 -0.0000 -5.2572 -16.1451 -3.7567 1.0866 7.1250 -0.0000 -0.0000 8.5771 -33.7968 2.3793
-0.5501 17.8691 -29.7442 -0.7609 2.1288 2.5056 0.0000 0.0000 0.0000 -16.6837 -4.5337 -7.3085 2.0886 9.0483 25.9466 -0.0294 12.5809 -17.5123 0.2020 -2.8942 -7.9842 0.0000 0.0000 0.0000 19.8979 0.4245 -10.2223 -2.8344 -10.4221 30.3547 -0.1248 -15.2282 -22.8582 -0.0122 0.7138 -1.9617 -0.4507 0.8335 3.6862 1.4127 1.1500 -2.5205 1.6247 0.6108 -4.7098 6.8888 0.2324 -15.7223 -6.9772 0.1809 20.9649 -3.5410 -0.1334 9.1825 0.0000 -0.0000 0.0000 -84.3718 7.6360 30.5527 16.1105 -25.6703 -3.6937 -0.0000 0.0000 -9.8262 12.7771 0.6803 0.1543 -7.1250 0.0000 -0.0000 -10.8980 30.5738 3.9027 0.0000 -0.0000 0.0000 86.7254 -10.0148 12.5126 -14.7406 23.7835 -3.1206 0.0000 -0.0000 -5.4334 -16.2256 -3.7063 1.0777 7.1250 -0.0000 -0.0000 8.5058 -33.7479 2.3693
-0.5479 17.8686 -29.7346 -0.8032 2.1691 2.5354 0.0000 0.0000 0.0000 -16.6469 -4.5789 -7.3148 2.0935 9.0581 25.9772 -0.0258 12.5824 -17.5618 0.2022 -2.8953 -7.9873 0.0000 0.0000 0.0000 19.9430 0.4309 -10.2132 -2.8323 -10.4184 30.3426 -0.1154 -15.2907 -22.8512 -0.0132 0.7425 -2.0405 -0.4282 0.8324 3.6344 1.4287 1.1505 -2.5244 1.6292 0.6105 -4.6843 6.8743 0.2316 -15.7556 -6.9729 0.1807 20.9699 -3.5376 -0.1346 9.1905 -0.0000 0.0000 0.0000 -84.4692 7.6749 30.6397 16.0930 -25.6466 -3.6861 -0.0000 0.0000 -9.7818 12.7184 0.6799 0.1535 -7.1250 0.0000 -0.0000 -10.9439 30.5724 3.9200 -0.0000 0.0000 0.0000 86.6491 -9.9467 12.6876 -14.8336 23.9137 -3.1582 0.0000 -0.0000 -5.6091 -16.3095 -3.6261 1.0602 7.1250 -0.0000 -0.0000 8.4283 -33.6684 2.3637
-0.5448 17.8676 -29.7219 -0.8838 2.1206 2.5512 0.0000 0.0000 0.0000 -16.5764 -4.5766 -7.2998 2.0997 9.0708 26.0169 -0.0231 12.6213 -17.6520 0.2006 -2.8840 -7.9561 0.0000 0.0000 0.0000 20.0255 0.4848 -10.1658 -2.8282 -10.4115 30.3200 -0.1087 -15.3269 -22.8348 -0.0143 0.7723 -2.1226 -0.3628 0.8564 3.5423 1.4526 1.1874 -2.5662 1.6154 0.6274 -4.6759 6.9743 0.2627 -15.5968 -7.0574 0.2268 20.9273 -3.5755 -0.1122 9.1497 -0.0000 -0.0000 0.0000 -84.5631 7.8382 30.7124 16.0834 -25.6336 -3.6820 -0.0000 0.0000 -9.7204 12.6468 0.7013 0.1573 -7.1250 0.0000 -0.0000 -11.0024 30.5925 3.9363 -0.0000 -0.0000 0.0000 86.5742 -10.0039 12.8722 -14.9336 24.0535 -3.1988 0.0000 -0.0000 -5.7816 -16.3894 -3.5277 1.0368 7.1250 -0.0000 -0.0000 8.3520 -33.5699 2.3621
